<svg xmlns="http://www.w3.org/2000/svg" version="1.0" viewBox="0 0 1491 294">
  <g fill="#F0F4F8">
    <path d="M235 2.6c-17.2 1.6-39.8 7.7-53.6 14.7-13 6.6-28 17.4-38.2 27.6-20.3 20.5-32.1 41.8-39.2 70.9-3.5 14-5.5 17.6-12.3 21.9l-4.2 2.7-28.5.7c-67.8 1.8-69.2 3.2-4.8 4.8 23.5.6 37.4 1.4 38.8 2.1 4.2 2.2 7.8 8.7 8.5 15.3 2.5 23 11 45.5 24.8 66.2 6.9 10.3 24.8 28.7 34.7 35.7 16.9 12 41.9 22.2 62 25.4 14.1 2.2 38.3 1.5 52.7-1.5 14.3-3 35.4-11.3 45.7-17.9 35.6-23 58.2-55.7 66.6-96.3 1.1-5.4 2-11.5 2-13.5 0-4.2 2.6-8.5 7.3-12.4l3.1-2.5 34.6-.7c19-.4 37.9-1.1 42-1.5 7-.6 7.2-.7 3.5-1.4-2.2-.4-19.7-1-39-1.4-39.9-.7-41-.9-47.4-8.1-3.2-3.7-4.2-5.9-5.5-12.2-10.9-51.6-44.3-91.7-91.2-109.6-18.7-7.1-43.6-10.7-62.4-9zm34 7.5c57.7 10.3 101.9 53.1 113.5 109.8 2 9.9 1.1 12.1-7 17.7-3 2-3.8 2-130.9 1.8l-127.9-.1-4.4-4.6c-5.1-5.5-5.2-6.4-1.8-20.6 9.5-39 36.9-73.1 73.9-91.8 9.9-5 28.6-11 39.6-12.7 13-2 32.4-1.8 45 .5zm110 140.4c5 4.8 6 8.1 4.9 16.1-3.4 24-14.2 49.1-29.3 67.9-4.6 5.7-17.5 18.6-23.2 23.1-3.8 2.9-18.1 12.4-18.8 12.4-.2 0-4.2 1.7-8.8 3.8-15.5 7.2-23.2 9.3-41.8 11.8-41.4 5.4-83.6-9.3-114.1-39.6-10.4-10.4-20.3-23.8-26.3-35.9-6.8-13.4-12.6-32.6-14.1-46.9l-.7-6.3 4.8-4.7 4.9-4.7 129.8.1 129.8.1 2.9 2.8z"/>
    <path d="M228.7 21c-12.2 1.4-26.2 5.6-38.2 11.5-10.3 5-19.3 11.1-18.1 12.3.3.2 3.6-1.1 7.3-3.1 21-11 42.5-15.4 70.5-14.4 21 .7 35.6 4.2 58.7 13.9 5.1 2.2 9.5 3.7 9.8 3.4 1.4-1.4-18.1-11.6-31.5-16.5-16.8-6.2-40.8-9.1-58.5-7.1zm-54.2 231.1c6.4 4.3 23.3 12.3 33.1 15.4 23.8 7.8 51.5 8.6 74 2 10.3-2.9 26.9-10.8 33.9-16 5.9-4.3 3.3-3.9-6.5 1.1-7.9 4-21.4 8.5-33 11-12.9 2.8-43.8 2.6-57.5-.4-11.7-2.5-25.9-7.1-36.7-11.8-8.6-3.8-11.8-4.4-7.3-1.3zM491.7 93.6c-.4.4-.7 22-.7 48.1V189h14v-40h52v40h14l-.2-47.8-.3-47.7h-13l-.3 20.2-.2 20.3h-52l-.2-20.3-.3-20.2-6-.3c-3.4-.2-6.4 0-6.8.4zm137.5.6C628 95.8 591 186.5 591 188c0 .7 2.7 1 7.7.8l7.7-.3 3.8-9.5 3.7-9.5h44.5l3.9 9.7 3.9 9.8h7.4c5.2 0 7.4-.4 7.4-1.2 0-2-37.3-93.2-38.5-94-1.7-1.3-12.2-.9-13.3.4zm15.1 39.5c4.3 10.9 7.7 20.1 7.7 20.5 0 .5-7.2.8-16.1.8-13 0-16-.3-15.7-1.4.7-3 15.3-39.5 15.9-39.6.3 0 4 8.9 8.2 19.7zM701 141v48h14v-11.8l.1-11.7 10.6-11.8 10.5-11.7h10.4c15.3 0 15.4.2 15.4 27.6V189h14v-18.3c-.1-35-2.5-40.7-18.3-42.9l-7.6-1.1 13.9-15.3c7.7-8.3 14-15.9 14-16.8 0-1.3-1.4-1.6-8.3-1.6h-8.4l-22.9 25.7-22.9 25.8-.5-25.5-.5-25.5-6.7-.3-6.8-.3V141zm102 0v48h14v-11.8l.1-11.7 10.6-11.8 10.7-11.8 10.4.3c14.9.4 14.5-.3 15 26.3l.4 20.5H878v-19.8c-.1-33.7-2.5-39.2-18.4-41.4l-7.4-1.1 13.6-15c7.5-8.2 13.7-15.7 13.7-16.6 0-1.3-1.4-1.6-8.2-1.9l-8.1-.3-22.9 25.8-22.8 25.7-.5-25.5-.5-25.4-6.7-.3-6.8-.3V141zm102.2-46.8c-.9.9-1.2 12.7-1.2 48V189h71v-13h-56v-27h23.8c17.2 0 24.1-.3 25-1.2 1.9-1.9 1.6-12.4-.4-13.2-.9-.3-12.1-.6-25-.6H919v-27h56.1l-.3-6.8-.3-6.7-34-.3c-25.7-.2-34.4.1-35.3 1zm93.5-.5c-.4.3-.7 21.9-.7 48V189h14l.2-36.6.3-36.7 24.4 36.7 24.4 36.6h16.7l-.2-47.8-.3-47.7-4.4-.3c-2.5-.2-5.5-.1-6.8.3l-2.3.5v73.5l-23.6-35.5c-12.9-19.5-24.2-36.3-25-37.3-1.1-1.3-2.9-1.7-8.7-1.7-4.1 0-7.7.3-8 .7zm105.8 1.5c-.3 1.3-.4 22.8-.3 47.8l.3 45.5 33.3.3 33.3.2-.3-6.2-.3-6.3-25.7-.3-25.8-.2v-40.3c0-30-.3-40.6-1.2-41.5-.7-.7-3.8-1.2-7-1.2-5.1 0-5.8.2-6.3 2.2zm119.8 1.5c-9.2 22.1-36.3 89.9-36.3 91 0 1 1.9 1.3 7.3 1.3h7.2l3.9-10 3.9-10h44.4l3.8 10 3.7 10h7.9c4.4 0 7.9-.3 7.8-.8 0-.4-8.7-21.9-19.3-47.7l-19.2-47-6.7-.3-6.8-.3-1.6 3.8zm16.5 37c4.4 11.1 7.7 20.5 7.4 20.8-.8.8-31 .6-31.5-.3-.4-.7 15.4-41.5 15.9-41 .1.2 3.8 9.4 8.2 20.5zm57.5-40c-1 .4-1.3 10.9-1.3 47.9V189h27.8c16.3 0 29.3-.4 31.5-1.1 2.1-.5 5.7-2.9 8.1-5.2 5.1-4.8 6.7-9.6 6.7-19.2 0-9.5-1.8-14.3-7.4-19.8-4.5-4.3-4.8-4.9-3.4-6.5 3.9-4.4 5.1-8.7 5.1-17.7 0-10.3-1.7-15-7.8-20.3-6.1-5.3-11.2-6.2-36-6.1-12.2 0-22.7.3-23.3.6zm46 14.4c5.7 1.5 7 4.4 6.5 14-.5 11.9-.6 11.9-21.9 11.9H1312v-27h14.3c7.8 0 15.9.5 18 1.1zm9.3 43.3c2.4 2 2.8 3.2 3.2 9 .3 4.1-.1 7.8-.9 9.7-2.1 5.1-5.5 5.9-25.9 5.9h-18v-27h19.4c19 0 19.6.1 22.2 2.4zm60.5-57.4c-15.2 3.2-23.2 13.8-21.8 29 .5 6.4 2.2 10.3 6.3 14.4 4.3 4.2 6.3 5 28.9 11 24.3 6.3 25.5 7.1 25.5 15.7 0 9.8-6.3 12.6-26.3 11.7-10.5-.5-14.7-2.2-17.7-7.1-1.1-1.8-2-4.6-2-6.3 0-4.2-1.6-5.4-7.5-5.4-7.6 0-8.1.6-6.8 8.5 1.5 8.5 5.3 14.9 11.1 18.6 6.9 4.4 10.1 4.9 29.2 4.9 16.3 0 17.8-.2 22.6-2.4 8.3-3.9 11.6-10.5 11.6-23.2 0-14.6-5.9-20.9-24.2-25.7-30.6-8.1-33.1-8.9-34.7-11.4-1.8-2.8-2-10.1-.4-13.2 2.4-4.5 6.6-5.6 21.1-5.6 12.3 0 13.8.2 17.2 2.3 3.6 2.3 6.3 7.4 7 13.2.3 2.4.7 2.5 7.1 2.8l6.7.3v-4.9c0-10.8-6.5-21-16.2-25.2-4.5-2-7.3-2.4-18.8-2.6-7.4-.2-15.5.1-17.9.6zM697.5 211.7c-5.4 1-6.8 1.6-10.5 4.9-9.4 8.5-8.6 25.3 1.6 33 2.7 2.1 5 2.9 9.3 3.2 10.9.8 18.8-6 20.7-17.6 2-12.7-9.4-25.4-21.1-23.5zm8.5 9.2c7.5 5.4 6.9 19.5-1 23.6-8.8 4.5-17-1.3-17-12.2 0-11.2 9.7-17.4 18-11.4zm-236.5-7.6c-.3.7-.4 9.6-.3 19.7l.3 18.5h27V249c0-2.5-.1-2.5-10.2-2.8l-10.3-.3V235h18v-7h-18v-9h20.1l-.3-3.3-.3-3.2-12.8-.3c-9.8-.2-12.9 0-13.2 1.1zm51-.3c-.3.5 2.1 5 5.4 9.9l6 8.9-6.4 9.3c-3.6 5.2-6.5 9.7-6.5 10.1 0 .5 1.8.8 4 .8 3.8 0 4.2-.3 8.2-6.5 2.4-3.5 4.6-6.5 5-6.5.5 0 2.7 2.9 5 6.5 4 6 4.5 6.5 8.1 6.5 2.1 0 3.7-.5 3.7-1.2 0-.6-2.7-5.1-6-9.9-3.3-4.8-6-9-6-9.4 0-.3 2.5-4.1 5.5-8.4 6.6-9.4 6.9-11.1 2-11.1-3.1 0-3.8.6-7.5 6-2.2 3.3-4.4 6-4.8 6-.4 0-2-2.1-3.6-4.6-1.6-2.5-3.5-5.2-4.3-6-1.6-1.6-6.9-1.9-7.8-.4zm58.2-.3c-.4.3-.7 9.3-.7 20V252h6.9l.3-7.3.3-7.2 7.8-.5c7.3-.5 8.1-.7 10.8-3.8 5.5-6.2 3.3-16.6-4.3-19.7-3.9-1.5-19.8-2.2-21.1-.8zM598 221c1.1 1.1 2 2.9 2 4 0 3.8-3.5 6-9.5 6H585v-12h5.5c4.2 0 6 .5 7.5 2zm34.5-7.8c-.3.8-.4 9.7-.3 19.8l.3 18.5h27V249c0-2.5-.1-2.5-10-3l-10-.5-.5-16.5-.5-16.5-2.8-.3c-1.6-.2-2.9.2-3.2 1zM745 232v20h5.9l.3-7.3.3-7.2 3.6-.3c3.6-.3 3.8-.1 8.4 7.3l4.8 7.6 4.1-.3c3.6-.3 4.1-.6 4.1-2.8 0-1.7-.6-2.6-2-2.8-1.1-.2-3.2-2.3-4.7-4.8l-2.8-4.5 3.2-2.8c2.6-2.3 3.2-3.7 3.6-8.2.3-4.5 0-5.9-1.9-8.3-3.3-4.3-7.6-5.6-17.9-5.6h-9v20zm20.2-11.3c1 .9 1.8 2.9 1.8 4.4 0 4-3.3 5.9-10.2 5.9H751v-12h6.2c4.3 0 6.7.5 8 1.7zm37.5-8.1c-.4.4-.7 9.4-.7 20.1V252h27v-6h-20v-11h18v-7h-18v-9h20.1l-.3-3.3-.3-3.2-12.6-.3c-6.9-.1-12.8.1-13.2.4zm83.3.9c-.6.8-.9 2.3-.5 3.5.5 1.7 1.5 2 6.6 2h5.9v33h7v-33h12v-7h-14.9c-11.8 0-15.1.3-16.1 1.5zm56.1-.1c-.8.9-1.1 7-.9 19.7l.3 18.4h7l.3-8.3.3-8.2H966v17h7v-19.4c0-12.6-.4-19.7-1.1-20.1-.5-.4-2.1-.4-3.5-.1-2.3.6-2.4 1-2.4 8.1v7.5h-17v-6.8c0-4-.5-7.3-1.2-8-1.6-1.6-4.3-1.5-5.7.2zm58.4-.1c-.3.7-.4 9.6-.3 19.7l.3 18.5 13.8.3 13.7.3V246h-20v-10.9l8.8-.3 8.7-.3v-6l-8.7-.3-8.8-.3v-8.8l9.8-.3 9.7-.3v-6l-13.3-.3c-10.2-.2-13.4 0-13.7 1.1zm86.9.1c-1.2 3.2.1 29 1.6 32 2.4 4.7 6.3 6.9 12.7 7.3 7.6.5 12-1.7 15.1-7.8 2.1-4.1 2.2-5.5 2-18.4l-.3-14h-6l-.2 12.5c-.2 6.9-.5 13.5-.8 14.7-.8 3.4-4.5 6.3-8.1 6.3-7.8 0-8.8-2-9.4-19.5l-.5-14-2.8-.3c-1.7-.2-2.9.2-3.3 1.2zM1146 232v20h3c3.7 0 3.9-.9 4.3-15.5l.2-11 8.4 13.3 8.3 13.3 3.7-.3 3.6-.3.3-17.5c.3-21 .1-22.2-3.6-21.8l-2.7.3-.5 13.7-.5 13.8-8.8-14c-8.6-13.5-9-14-12.3-14h-3.4v20zm59.7-19.4c-.4.4-.7 9.4-.7 20.1V252h7l-.2-19.8-.3-19.7-2.5-.3c-1.4-.2-2.9 0-3.3.4zm31.7.8c-.6 1.5 6.9 25.4 10.7 34.3 1.7 4 2.1 4.3 5.6 4.3h3.8l6.3-18.3c3.4-10 6.2-19 6.2-20 0-1.5-.7-1.8-3.2-1.5-3.3.3-3.3.4-7.8 13.8-2.5 7.4-4.8 14.2-5.1 15-.3.8-2.8-5.3-5.6-13.5-4.6-14-5.1-15-7.6-15.3-1.7-.2-2.9.2-3.3 1.2zm58.3-.8c-.4.4-.7 9.4-.7 20.1v19.4l13.8-.3 13.7-.3V249c0-2.5-.1-2.5-10.2-2.8l-10.3-.3V235h18v-7h-18v-9h20.1l-.3-3.3-.3-3.2-12.6-.3c-6.9-.1-12.8.1-13.2.4zm53 .1c-.4.3-.7 9.3-.7 20V252h6.9l.3-7.3.3-7.2 3.2-.3c2.9-.3 3.5.2 8.3 7.3l5.1 7.6 4.2-.3c3.7-.3 4.2-.6 4.2-2.8 0-1.8-.6-2.6-2-2.8-1.2-.2-3.2-2.2-4.8-4.8l-2.7-4.4 3.2-2.9c2.6-2.3 3.2-3.7 3.6-8.2.3-4.5 0-5.9-1.9-8.3-3.3-4.2-7.6-5.6-17.7-5.6-4.9 0-9.2.3-9.5.7zm19.8 7.7c1.1.8 1.8 2.6 1.8 4.6 0 4.5-2.4 6-9.5 6h-5.8v-12h5.8c3.3 0 6.6.6 7.7 1.4zm42.9-7c-4.1 1.8-6.4 5.2-6.4 9.4 0 6.4 2.5 8.6 14.1 12.2 9.4 2.9 12.2 6.3 7.7 9.4-3.8 2.7-10.2 2.1-14.2-1.4-3-2.7-3.7-2.9-6-1.9-3.1 1.5-3.3 2.8-.6 6.1 2.8 3.6 8 5.8 13.9 5.8 9.8 0 16.1-4.8 16.1-12.2 0-5.9-4.5-10-14-12.8-4.1-1.2-8.1-2.8-8.9-3.5-2.1-2-.6-4.3 3.4-5.4 4.3-1.2 8.2 0 10.7 3.2 1.4 1.8 2.1 2 4.4 1.2 4-1.4 4-2.9.1-7.2-3.3-3.5-3.8-3.7-10.3-4-4.4-.2-8 .2-10 1.1zM1462 232v20h27v-6h-20v-10.9l8.8-.3 8.7-.3v-6l-8.7-.3-8.8-.3v-8.8l9.8-.3 9.7-.3v-6l-13.2-.3-13.3-.3V232z"/>
  </g>
</svg>
